<svg width="224" height="129" viewBox="0 0 224 129" fill="none" xmlns="http://www.w3.org/2000/svg">
<g filter="url(#filter0_f_301_4476)">
<ellipse cx="111.755" cy="64.3636" rx="88.8554" ry="41.4636" fill="#A4F782"/>
</g>
<path d="M61.2837 59.7454L61.2637 59.4254C62.9036 57.8455 63.1036 57.6656 64.9635 55.6657C66.2434 54.2858 66.7034 53.6858 67.1034 52.8259C67.5433 51.8859 67.7833 50.866 67.7833 49.966C67.7833 48.3661 66.8034 47.2262 65.4235 47.2262C64.2035 47.2262 63.3836 48.0262 63.1236 49.4461H62.9236C62.8036 49.1261 62.5636 48.7861 62.1637 48.3661C62.9436 47.1662 64.1235 46.5462 65.7234 46.5462C68.1233 46.5462 69.5632 47.8262 69.5632 49.946C69.5632 51.046 69.1832 52.0859 68.4633 52.9858C67.9633 53.6058 67.9633 53.6058 66.0234 55.6257L64.8035 56.9056C64.0236 57.7255 63.8436 57.9255 63.4836 58.4055L64.5435 58.4255C65.7834 58.4255 68.3433 58.3255 69.7432 58.2255C69.7032 58.5455 69.6832 58.7055 69.6832 59.0055C69.6832 59.2854 69.7032 59.4454 69.7432 59.7454C68.4833 59.6654 67.4633 59.6454 66.0634 59.6454C64.3435 59.6454 61.8637 59.6854 61.2837 59.7454ZM78.4773 52.3459C80.3972 52.8858 81.3572 54.0458 81.3572 55.8657C81.3572 58.3055 79.5773 59.9254 76.9374 59.9254C74.2976 59.9254 72.5177 58.3055 72.5177 55.8657C72.5177 54.0458 73.4776 52.8858 75.3975 52.3459C73.9376 51.9659 73.1577 50.966 73.1577 49.5061C73.1577 47.6862 74.5976 46.5462 76.9374 46.5462C79.2773 46.5462 80.7172 47.6862 80.7172 49.5061C80.7172 50.966 79.9372 51.9659 78.4773 52.3459ZM76.9574 47.1662C75.6575 47.1662 74.8576 48.1061 74.8576 49.6461C74.8576 51.126 75.6975 52.1259 76.9374 52.1259C78.1774 52.1259 79.0173 51.126 79.0173 49.6461C79.0173 48.1461 78.1974 47.1662 76.9574 47.1662ZM76.9774 52.7459C75.3375 52.7459 74.2976 54.0258 74.2976 56.0257C74.2976 57.9855 75.3575 59.3054 76.9374 59.3054C78.5173 59.3054 79.5773 57.9855 79.5773 56.0257C79.5773 54.0658 78.5373 52.7459 76.9774 52.7459ZM84.7716 57.6456C85.3716 57.6456 85.8716 58.1455 85.8716 58.7455C85.8716 59.3854 85.3716 59.8654 84.7316 59.8654C84.1317 59.8654 83.6517 59.3454 83.6517 58.7255C83.6517 58.1455 84.1517 57.6456 84.7716 57.6456ZM92.66 46.5462C94.14 46.5462 95.3599 47.1062 96.0998 48.1261C96.8798 49.2061 97.2398 50.806 97.2398 53.2458C97.2398 55.6657 96.8798 57.2856 96.0998 58.3455C95.3399 59.3854 94.14 59.9254 92.62 59.9254C91.1001 59.9254 89.9002 59.3854 89.1403 58.3455C88.3603 57.2856 88.0003 55.6657 88.0003 53.2458C88.0003 50.806 88.3603 49.2261 89.1403 48.1261C89.9002 47.0862 91.1001 46.5462 92.66 46.5462ZM92.64 47.1662C90.5602 47.1662 89.6402 49.0261 89.6402 53.2258C89.6402 57.4056 90.5602 59.3054 92.62 59.3054C94.6799 59.3054 95.5999 57.4056 95.5999 53.2258C95.5999 51.3059 95.4199 50.006 95.0199 48.9461C94.5999 47.8462 93.72 47.1662 92.64 47.1662ZM99.7343 57.6656H99.9343C100.334 58.7455 101.194 59.3054 102.414 59.3054C104.274 59.3054 105.554 57.9455 105.554 55.9457C105.554 54.1858 104.534 53.1658 102.774 53.1658C102.454 53.1658 102.254 53.1858 101.854 53.2658C101.894 53.1258 101.894 53.0858 101.894 52.9258C101.894 52.7659 101.894 52.6459 101.854 52.4459C102.054 52.4859 102.154 52.4859 102.334 52.4859C104.074 52.4859 105.054 51.4659 105.054 49.6461C105.054 48.1061 104.234 47.1662 102.914 47.1662C101.794 47.1662 100.994 47.8462 100.674 49.0661H100.514C100.334 48.6261 100.114 48.1861 99.8743 47.8862C100.714 46.9662 101.734 46.5462 103.154 46.5462C105.394 46.5462 106.754 47.6462 106.754 49.4661C106.754 51.046 105.814 52.1459 103.994 52.7059C106.094 52.9458 107.334 54.1058 107.334 55.8257C107.334 57.0056 106.774 58.1255 105.794 58.8855C104.894 59.5854 103.714 59.9254 102.214 59.9254C101.014 59.9254 100.154 59.7254 99.3143 59.2655C99.4743 58.9455 99.6143 58.4055 99.7343 57.6656ZM111.508 57.6456C112.108 57.6456 112.608 58.1455 112.608 58.7455C112.608 59.3854 112.108 59.8654 111.468 59.8654C110.868 59.8654 110.388 59.3454 110.388 58.7255C110.388 58.1455 110.888 57.6456 111.508 57.6456ZM114.757 59.7454L114.737 59.4254C116.377 57.8455 116.577 57.6656 118.437 55.6657C119.717 54.2858 120.177 53.6858 120.577 52.8259C121.017 51.8859 121.257 50.866 121.257 49.966C121.257 48.3661 120.277 47.2262 118.897 47.2262C117.677 47.2262 116.857 48.0262 116.597 49.4461H116.397C116.277 49.1261 116.037 48.7861 115.637 48.3661C116.417 47.1662 117.597 46.5462 119.197 46.5462C121.597 46.5462 123.036 47.8262 123.036 49.946C123.036 51.046 122.656 52.0859 121.937 52.9858C121.437 53.6058 121.437 53.6058 119.497 55.6257L118.277 56.9056C117.497 57.7255 117.317 57.9255 116.957 58.4055L118.017 58.4255C119.257 58.4255 121.817 58.3255 123.216 58.2255C123.176 58.5455 123.156 58.7055 123.156 59.0055C123.156 59.2854 123.176 59.4454 123.216 59.7454C121.957 59.6654 120.937 59.6454 119.537 59.6454C117.817 59.6454 115.337 59.6854 114.757 59.7454ZM130.451 46.5462C131.931 46.5462 133.15 47.1062 133.89 48.1261C134.67 49.2061 135.03 50.806 135.03 53.2458C135.03 55.6657 134.67 57.2856 133.89 58.3455C133.13 59.3854 131.931 59.9254 130.411 59.9254C128.891 59.9254 127.691 59.3854 126.931 58.3455C126.151 57.2856 125.791 55.6657 125.791 53.2458C125.791 50.806 126.151 49.2261 126.931 48.1261C127.691 47.0862 128.891 46.5462 130.451 46.5462ZM130.431 47.1662C128.351 47.1662 127.431 49.0261 127.431 53.2258C127.431 57.4056 128.351 59.3054 130.411 59.3054C132.471 59.3054 133.39 57.4056 133.39 53.2258C133.39 51.3059 133.21 50.006 132.811 48.9461C132.391 47.8462 131.511 47.1662 130.431 47.1662ZM136.865 59.7454L136.845 59.4254C138.485 57.8455 138.685 57.6656 140.545 55.6657C141.825 54.2858 142.285 53.6858 142.685 52.8259C143.125 51.8859 143.365 50.866 143.365 49.966C143.365 48.3661 142.385 47.2262 141.005 47.2262C139.785 47.2262 138.965 48.0262 138.705 49.4461H138.505C138.385 49.1261 138.145 48.7861 137.745 48.3661C138.525 47.1662 139.705 46.5462 141.305 46.5462C143.705 46.5462 145.144 47.8262 145.144 49.946C145.144 51.046 144.764 52.0859 144.044 52.9858C143.545 53.6058 143.545 53.6058 141.605 55.6257L140.385 56.9056C139.605 57.7255 139.425 57.9255 139.065 58.4055L140.125 58.4255C141.365 58.4255 143.925 58.3255 145.324 58.2255C145.284 58.5455 145.264 58.7055 145.264 59.0055C145.264 59.2854 145.284 59.4454 145.324 59.7454C144.064 59.6654 143.045 59.6454 141.645 59.6454C139.925 59.6454 137.445 59.6854 136.865 59.7454ZM155.758 47.8062L155.618 47.8662C155.158 47.3262 154.759 47.1462 154.039 47.1462C152.459 47.1462 151.319 48.3061 150.519 50.686C150.159 51.8259 150.019 52.6059 150.019 53.7458C150.839 52.4459 151.919 51.8259 153.419 51.8259C155.638 51.8259 157.138 53.3458 157.138 55.6057C157.138 58.1255 155.298 59.9254 152.739 59.9254C149.919 59.9254 148.339 57.9255 148.339 54.3658C148.339 52.1259 148.799 50.406 149.779 49.0061C150.919 47.3462 152.399 46.5462 154.299 46.5462C154.699 46.5462 154.979 46.5662 155.438 46.6662C155.498 47.0862 155.518 47.1262 155.758 47.8062ZM152.919 52.6259C151.259 52.6259 150.119 54.0258 150.119 56.0457C150.119 57.9455 151.219 59.3054 152.759 59.3054C154.359 59.3054 155.358 57.9055 155.358 55.6857C155.358 53.8058 154.419 52.6259 152.919 52.6259ZM57.3195 66.5661H57.1195C56.7395 65.4662 55.7596 64.7662 54.6197 64.7662C53.2198 64.7662 52.1598 65.8062 52.1598 67.1661C52.1598 67.866 52.4798 68.546 53.0398 68.966C53.5197 69.3059 54.1197 69.6259 55.2996 70.1059C56.6396 70.6659 57.0195 70.8858 57.4995 71.3658C58.0995 71.9458 58.3994 72.7057 58.3994 73.6257C58.3994 76.1055 56.3396 78.0054 53.6597 78.0054C52.3798 78.0054 51.2199 77.6254 50.3 76.8855C50.5799 76.0255 50.6399 75.7055 50.6999 75.1056H50.8999C51.4399 76.3055 52.7198 77.1255 54.0197 77.1255C55.6396 77.1255 56.8395 75.9455 56.8395 74.3056C56.8395 73.6057 56.5996 73.0457 56.1396 72.6057C55.6596 72.1658 55.3596 72.0058 53.9597 71.4258C51.5399 70.4259 50.6399 69.4259 50.6399 67.706C50.6399 65.4862 52.3598 63.9863 54.8597 63.9863C56.0196 63.9863 56.8995 64.2663 57.8595 64.9262C57.6195 65.4462 57.4195 66.0861 57.3195 66.5661ZM61.7941 64.2463L61.9941 64.8262C63.474 68.946 63.774 69.6859 66.2338 75.6456C67.5137 72.7657 70.2735 65.6462 70.6335 64.2463C71.0335 64.3063 71.1935 64.3263 71.3735 64.3263C71.5535 64.3263 71.7135 64.3063 72.0934 64.2463C71.0735 66.5061 69.8136 69.4459 68.2937 73.0457C66.9338 76.3055 66.8938 76.4055 66.4338 77.7454C66.1138 77.6854 65.9938 77.6654 65.8538 77.6654C65.7138 77.6654 65.5938 77.6854 65.2539 77.7454L65.1139 77.3854C63.8739 74.1656 63.774 73.8857 63.494 73.1857C63.234 72.5457 62.934 71.8058 62.594 71.0058L61.6941 68.886L60.8141 66.7461L59.9942 64.7662L59.7742 64.2463C60.1742 64.3063 60.3942 64.3263 60.8341 64.3263C61.2341 64.3263 61.4341 64.3063 61.7941 64.2463ZM81.2044 77.7454L80.9044 77.7254C78.5846 77.6654 78.5846 77.6654 78.1446 77.6654C76.9847 77.6654 74.5648 77.7054 74.0249 77.7454C74.1649 76.3855 74.2449 73.2457 74.2449 69.9259C74.2449 67.3661 74.1849 65.3462 74.1049 64.2463C74.7448 64.3063 74.7648 64.3063 77.6846 64.3263L79.3045 64.3063C80.4045 64.3063 80.7245 64.2863 81.1044 64.2463C81.0644 64.5262 81.0444 64.6662 81.0444 64.8262C81.0444 64.9662 81.0644 65.1062 81.1044 65.4062C80.0045 65.2862 78.0646 65.2062 76.6447 65.2062C76.4247 65.2062 76.2447 65.2062 75.9848 65.2262C75.9648 65.3662 75.9448 66.1461 75.8848 67.5661C75.8248 69.4859 75.8248 69.4859 75.8248 69.7659C75.8248 69.8059 75.8248 69.9859 75.8448 70.1659C76.1247 70.1859 76.2447 70.1859 76.5647 70.1859C78.0646 70.1859 79.8845 70.1059 80.6445 70.0059C80.5845 70.3059 80.5645 70.4659 80.5645 70.6459C80.5645 70.8459 80.5845 70.9658 80.6445 71.1858C79.8045 71.1058 78.2846 71.0458 76.5247 71.0458C76.2647 71.0458 76.1047 71.0458 75.8248 71.0658V71.4058L75.8448 72.4058V73.8857C75.8448 74.2856 75.8448 74.7856 75.8648 75.3456C75.8848 75.9655 75.9048 76.3655 75.9048 76.4655V76.7855C76.1847 76.8055 76.3647 76.8055 76.6047 76.8055C78.2446 76.8055 80.3245 76.6855 81.2044 76.5455C81.1644 76.8055 81.1444 76.9455 81.1444 77.1455C81.1444 77.3654 81.1644 77.4854 81.2044 77.7454ZM86.3102 71.1858H85.5503C85.5503 73.9257 85.6302 76.8055 85.7302 77.7454C85.2503 77.6854 85.0103 77.6654 84.6903 77.6654C84.3703 77.6654 84.1503 77.6854 83.7704 77.7454C83.8904 75.9455 83.9704 73.1857 83.9704 70.4859C83.9704 67.846 83.9104 65.8262 83.7704 64.2463C84.4103 64.3063 84.7703 64.3263 85.3703 64.3263C85.7102 64.3263 86.1902 64.3063 86.7502 64.2863C87.4501 64.2663 88.0701 64.2463 88.3501 64.2463C89.63 64.2463 90.4499 64.4263 91.1299 64.8462C91.9099 65.3462 92.3898 66.2661 92.3898 67.2861C92.3898 68.626 91.6499 69.7459 90.33 70.4059C89.81 70.6859 89.27 70.8459 88.3301 71.0258L88.5301 71.2658L89.81 72.9057C92.3498 76.1455 92.9098 76.8255 93.8097 77.7454C93.2098 77.6854 92.9098 77.6654 92.5498 77.6654C92.1698 77.6654 91.9099 77.6854 91.4299 77.7454L91.2299 77.4654C88.89 74.2656 86.9302 71.7458 86.3102 71.1858ZM85.5503 70.4259C85.9702 70.4859 86.2902 70.5059 86.6702 70.5059C89.17 70.5059 90.5899 69.4259 90.5899 67.4861C90.5899 65.8262 89.49 64.9262 87.4301 64.9262C86.8902 64.9262 86.3502 64.9662 85.6702 65.0662C85.5903 66.7861 85.5503 67.786 85.5503 70.4259ZM101.942 64.0663L102.082 64.4263L103.442 67.6261L104.842 70.9258L106.321 74.3456C107.161 76.3255 107.361 76.7655 107.821 77.7454C107.401 77.6854 107.181 77.6654 106.781 77.6654C106.401 77.6654 106.181 77.6854 105.821 77.7454C105.462 76.7055 104.362 73.8857 103.742 72.4658H103.382L101.102 72.4458C101.082 72.4458 99.1619 72.4658 98.7019 72.4857C98.222 73.6457 97.842 74.5656 97.682 75.0256C97.662 75.0456 97.262 76.2455 96.7421 77.7454C96.4021 77.6854 96.2421 77.6654 96.0621 77.6654C95.8621 77.6654 95.7221 77.6854 95.3221 77.7454C95.7421 76.9255 96.0421 76.2855 96.882 74.4456C97.382 73.3057 97.902 72.1658 98.4219 70.9858C98.9419 69.8859 99.4219 68.826 99.9219 67.666C100.382 66.6461 100.862 65.5662 101.342 64.4862L101.542 64.0663H101.742H101.942ZM101.262 66.6461L101.142 66.9061L100.142 69.126L99.1819 71.3658L99.0619 71.6458C99.9819 71.6658 100.362 71.6658 101.362 71.6658C102.242 71.6658 102.722 71.6658 103.402 71.6458L103.302 71.3658C102.982 70.6259 102.662 69.8659 102.362 69.126C102.002 68.286 101.702 67.6061 101.262 66.6461ZM126.661 66.6461H126.461C125.361 65.4262 123.761 64.7262 121.961 64.7262C118.521 64.7262 116.281 67.2061 116.281 71.0058C116.281 74.8656 118.501 77.2655 122.081 77.2655C123.261 77.2655 124.321 77.0455 125.341 76.5855C125.401 75.6855 125.421 74.9256 125.421 73.9857C125.421 72.9057 125.401 72.3858 125.301 71.5858C125.621 71.6458 125.821 71.6658 126.181 71.6658C126.581 71.6658 126.8 71.6458 127.18 71.5858C127.08 72.6257 127.02 73.8057 127.02 74.9856C127.02 76.2055 127.02 76.5455 127.08 77.1055C125.221 77.7254 123.541 78.0054 121.741 78.0054C119.441 78.0054 117.761 77.4854 116.441 76.3455C115.041 75.1456 114.301 73.3657 114.301 71.1658C114.301 68.846 115.141 66.8861 116.661 65.6462C118.041 64.5262 119.821 63.9863 122.141 63.9863C124.201 63.9863 125.721 64.3463 127.16 65.1462C126.92 65.5662 126.78 65.9862 126.661 66.6461ZM137.048 68.026V67.3061C137.048 65.4462 137.008 64.1263 136.948 63.0063C137.428 63.0663 137.628 63.0863 137.868 63.0863C138.128 63.0863 138.328 63.0663 138.648 63.0063C138.568 63.8663 138.568 63.9063 138.468 67.986L138.448 70.3459L138.428 72.7857C138.448 74.7656 138.448 75.9855 138.448 76.4255C138.448 77.1455 138.448 77.1855 138.488 77.7454C138.208 77.6854 138.068 77.6654 137.788 77.6654C137.528 77.6654 137.328 77.6854 137.008 77.7454L137.028 77.2455L137.068 76.2655V75.7855C136.348 77.2655 135.248 77.9654 133.688 77.9654C131.268 77.9654 129.668 76.1255 129.668 73.3457C129.668 70.2459 131.328 68.266 133.948 68.266C135.448 68.266 136.528 68.926 137.048 70.1659C137.028 70.0059 137.028 69.8059 137.028 69.7859C137.028 69.4859 137.028 69.046 137.048 68.026ZM134.308 69.026C132.428 69.026 131.408 70.5459 131.408 73.3457C131.408 75.7855 132.408 77.2255 134.128 77.2255C135.888 77.2255 137.028 75.5256 137.028 72.8857C137.028 70.5059 135.988 69.026 134.308 69.026ZM144.92 75.8455C145.879 73.7857 147.059 70.8459 147.879 68.406C148.139 68.466 148.259 68.486 148.479 68.486C148.679 68.486 148.839 68.466 149.179 68.406C148.919 68.946 148.799 69.186 148.339 70.2259C147.759 71.4458 147.299 72.4058 146.759 73.5857C144.62 78.3454 143.28 81.4652 142.74 83.0451C142.42 82.9451 142.28 82.9251 141.96 82.9251C141.66 82.9251 141.5 82.9451 141.2 83.0051C141.36 82.7051 141.72 82.1251 142.22 81.2652C143.14 79.7053 143.78 78.4654 144.06 77.7254C143.78 76.9255 143.74 76.8455 142.22 73.2257C141.84 72.3458 141.52 71.5858 141.26 70.9458C140.62 69.4259 140.46 69.046 140.14 68.406C140.62 68.466 140.88 68.486 141.18 68.486C141.48 68.486 141.66 68.466 142 68.406C142.42 69.8459 143.94 73.7057 144.92 75.8455ZM152.056 69.206V70.1259C152.796 68.866 153.856 68.266 155.276 68.266C156.256 68.266 157.096 68.586 157.676 69.166C158.256 69.7459 158.496 70.4259 158.496 71.5058C158.496 71.6458 158.476 72.3858 158.436 73.1857C158.416 73.6657 158.416 74.2256 158.416 74.8256C158.416 76.3455 158.436 77.1455 158.476 77.7454C157.876 77.6654 157.796 77.6654 157.596 77.6654C157.416 77.6654 157.236 77.6854 156.776 77.7454C156.876 76.4855 156.976 74.1456 156.976 72.6257C156.976 71.3258 156.876 70.7659 156.596 70.2859C156.196 69.5859 155.536 69.246 154.656 69.246C153.596 69.246 152.756 69.7459 152.416 70.5859C152.156 71.2858 152.096 71.9258 152.096 74.6456C152.096 75.8855 152.116 76.3055 152.196 77.7454C151.736 77.6854 151.556 77.6654 151.336 77.6654C151.116 77.6654 150.916 77.6854 150.497 77.7454C150.597 76.9855 150.677 74.3256 150.677 72.2258C150.677 70.9658 150.617 69.8059 150.497 68.406C150.856 68.466 151.056 68.486 151.376 68.486C151.676 68.486 151.816 68.466 152.096 68.406C152.076 68.726 152.076 68.866 152.056 69.206ZM161.219 68.406C161.598 68.466 161.818 68.486 162.138 68.486C162.438 68.486 162.618 68.466 162.938 68.406C162.878 69.186 162.818 71.5858 162.818 73.2457C162.818 74.5256 162.878 76.8655 162.938 77.7454C162.598 77.6854 162.398 77.6654 162.118 77.6654C161.858 77.6654 161.638 77.6854 161.219 77.7454C161.338 76.6255 161.378 75.4856 161.378 73.4257C161.378 71.1858 161.318 69.5459 161.219 68.406ZM162.158 64.0663C162.678 64.0663 163.138 64.5262 163.138 65.0662C163.138 65.6262 162.698 66.0661 162.138 66.0661C161.578 66.0661 161.139 65.6262 161.139 65.0662C161.139 64.5062 161.578 64.0663 162.158 64.0663ZM166.293 70.4659H166.093C166.133 70.1859 166.153 70.0659 166.153 69.9059C166.153 69.7459 166.133 69.6259 166.093 69.3459C167.233 68.586 168.173 68.266 169.293 68.266C171.292 68.266 172.492 69.4059 172.492 71.3258C172.492 71.6858 172.472 72.1258 172.452 72.6457C172.432 73.4057 172.412 73.9257 172.412 74.6856C172.412 75.9055 172.432 76.3655 172.512 76.6055C172.612 76.9455 172.852 77.1255 173.192 77.1255C173.312 77.1255 173.412 77.1055 173.612 77.0855V77.4654C173.072 77.6854 172.712 77.7654 172.292 77.7654C171.492 77.7654 171.052 77.3854 170.932 76.5855C170.052 77.5454 169.073 78.0054 167.913 78.0054C166.253 78.0054 165.213 77.0655 165.213 75.5656C165.213 74.7256 165.533 74.0057 166.093 73.6057C166.613 73.2257 167.193 73.0257 168.573 72.8057C170.012 72.5657 170.452 72.4258 170.972 72.0858V72.0458C170.972 70.9658 170.972 70.9058 170.812 70.4459C170.532 69.5859 169.733 69.066 168.733 69.066C167.693 69.066 166.793 69.5659 166.293 70.4659ZM170.992 72.8857L170.772 72.9257C168.233 73.4857 168.153 73.5057 167.753 73.7257C167.133 74.0657 166.833 74.6056 166.833 75.3656C166.833 76.4255 167.573 77.1655 168.633 77.1655C169.513 77.1655 170.412 76.6255 170.932 75.7855C170.932 75.2656 170.932 75.1456 170.952 74.7456V74.2656L170.992 73.0657V72.8857Z" fill="#200D0A"/>
<defs>
<filter id="filter0_f_301_4476" x="-9.72748e-05" y="0" width="223.511" height="128.727" filterUnits="userSpaceOnUse" color-interpolation-filters="sRGB">
<feFlood flood-opacity="0" result="BackgroundImageFix"/>
<feBlend mode="normal" in="SourceGraphic" in2="BackgroundImageFix" result="shape"/>
<feGaussianBlur stdDeviation="11.45" result="effect1_foregroundBlur_301_4476"/>
</filter>
</defs>
</svg>
