<svg width="90" height="49" viewBox="0 0 90 49" fill="none" xmlns="http://www.w3.org/2000/svg">
<g filter="url(#filter0_d_173_2428)">
<path d="M35.6666 27.4777C35.6775 25.2438 35.7068 22.5455 35.6519 20.2922C35.4756 17.1647 35.1832 14.4535 34.5317 11.4695C32.4986 2.17406 28.7184 1.64866 26.4943 9.5214C26.243 10.39 26.0018 11.4232 25.8163 12.3649C25.7414 12.7201 25.7194 13.0318 25.6143 13.326C25.5358 13.5322 25.4197 13.6913 25.1876 13.8615C24.9555 14.0317 24.399 14.1168 24.007 13.8144C23.7265 13.5979 23.6224 13.2843 23.4707 12.8746C23.0476 11.6841 22.503 10.4612 21.9209 9.4363C20.0075 6.20432 17.873 4.11473 14.6283 4.00003C7.84821 3.99078 4.18405 15.2454 4.04973 22.0201C3.8286 26.5934 4.33573 31.0214 5.75662 35.0849C8.12325 41.8023 12.883 46.3932 18.2897 42.8763C20.8281 41.0337 22.3678 38.4779 23.4963 35.1451C23.6224 34.7732 23.7046 34.4448 24.0628 34.233C24.421 34.0212 24.9245 34.0203 25.2772 34.3079C25.5513 34.5318 25.6381 34.7547 25.7276 35.2644C26.179 37.8313 26.8808 40.6211 28.2752 42.7126C31.0822 46.5014 33.3986 41.8033 34.5326 36.6177C35.2024 33.5531 35.5057 30.6893 35.6666 27.4841V27.4767V27.4777Z" fill="#A4F782"/>
<path d="M85.1737 24.0449C85.1052 18.3432 84.5304 12.9864 82.2917 7.99325C78.9565 1.03441 74.4919 3.80666 72.3565 11.6646C72.2331 12.1012 72.1198 12.5434 72.0138 12.9855C71.9188 13.3546 71.8631 13.6284 71.6483 13.8282C71.3468 14.0733 70.8506 14.078 70.5409 13.8439C70.3791 13.7144 70.2896 13.4915 70.2165 13.2094C69.6828 10.9015 68.9793 8.61115 67.8663 6.71951C64.2085 0.723609 60.2602 5.52625 58.6483 12.8107C58.4848 13.7764 58.0023 13.9198 57.5838 14.0215C56.9049 14.065 56.4517 13.6654 56.2826 12.9245C52.8889 2.00012 44.1461 0.0409532 39.7729 13.0993C38.4681 17.1582 38.0148 21.5261 38.215 26.0568C38.3666 28.9521 38.7669 31.5107 39.4741 34.0165C40.8383 39.2077 44.2448 44.0982 47.8012 44.0871C52.0063 44.1925 54.6744 39.7386 56.1529 35.5576C56.2671 35.2403 56.3265 35.0312 56.4361 34.7611C56.5586 34.4587 56.724 34.3236 57.0045 34.1691C57.3755 33.9638 57.984 34.1062 58.2171 34.3523C58.4501 34.5983 58.5067 34.7195 58.5862 35.059C60.1131 41.6071 63.1733 46.5494 66.8164 42.8207C68.6 40.7718 69.448 38.0125 70.1297 35.2458C70.2311 34.874 70.2695 34.4096 70.6249 34.196C71.1056 33.9499 71.7379 34.0951 71.895 34.6797C72.5868 37.4104 73.4201 40.2825 75.1151 42.4073C78.8049 46.7252 82.0962 42.0715 83.6532 36.3827C84.7479 32.3718 85.1463 28.5136 85.1746 24.0551V24.044L85.1737 24.0449Z" fill="#FD98E4"/>
<path d="M64.7495 26.1966C64.3786 25.6684 64.1976 24.9478 64.1976 24.0543C64.1976 23.1607 64.3786 22.4401 64.7495 21.9018C65.211 21.2117 66.0032 20.8158 66.9151 20.8158C68.6102 20.8158 69.6427 22.034 69.6427 24.0034C69.6427 24.9478 69.4718 25.6379 69.0908 26.1957C68.6293 26.8857 67.8271 27.2816 66.9151 27.2816C66.0032 27.2816 65.2302 26.8959 64.7495 26.1957V26.1966Z" fill="#A4F782"/>
</g>
<defs>
<filter id="filter0_d_173_2428" x="-0.912476" y="-0.937927" width="91" height="50" filterUnits="userSpaceOnUse" color-interpolation-filters="sRGB">
<feFlood flood-opacity="0" result="BackgroundImageFix"/>
<feColorMatrix in="SourceAlpha" type="matrix" values="0 0 0 0 0 0 0 0 0 0 0 0 0 0 0 0 0 0 127 0" result="hardAlpha"/>
<feOffset/>
<feGaussianBlur stdDeviation="2"/>
<feComposite in2="hardAlpha" operator="out"/>
<feColorMatrix type="matrix" values="0 0 0 0 0 0 0 0 0 0 0 0 0 0 0 0 0 0 0.25 0"/>
<feBlend mode="normal" in2="BackgroundImageFix" result="effect1_dropShadow_173_2428"/>
<feBlend mode="normal" in="SourceGraphic" in2="effect1_dropShadow_173_2428" result="shape"/>
</filter>
</defs>
</svg>
