<svg width="93" height="53" viewBox="0 0 93 53" fill="none" xmlns="http://www.w3.org/2000/svg">
<g filter="url(#filter0_d_173_2432)">
<path d="M37.822 29.6597C37.8326 27.5321 37.8608 24.9624 37.8079 22.8164C37.638 19.8378 37.3561 17.2557 36.7282 14.4138C34.7685 5.561 31.125 5.06061 28.9813 12.5585C28.7391 13.3857 28.5066 14.3697 28.3278 15.2665C28.2556 15.6048 28.2344 15.9017 28.1331 16.1819C28.0574 16.3783 27.9456 16.5298 27.7218 16.6919C27.4981 16.854 26.9618 16.9351 26.5839 16.647C26.3136 16.4409 26.2132 16.1422 26.067 15.7519C25.6592 14.6181 25.1343 13.4535 24.5732 12.4774C22.729 9.39934 20.6716 7.40925 17.5442 7.30001C11.0092 7.2912 7.47744 18.0098 7.34798 24.462C7.13484 28.8175 7.62365 33.0346 8.99318 36.9047C11.2743 43.3022 15.862 47.6744 21.0732 44.325C23.5199 42.5701 25.0039 40.136 26.0916 36.9619C26.2132 36.6078 26.2924 36.2951 26.6377 36.0933C26.9935 35.8863 27.4682 35.8907 27.8082 36.1647C28.0724 36.3779 28.156 36.5902 28.2424 37.0756C28.6774 39.5203 29.3538 42.1772 30.6978 44.1691C33.4034 47.7775 35.6361 43.3031 36.729 38.3644C37.3746 35.4458 37.667 32.7184 37.822 29.6658V29.6588V29.6597Z" fill="#E8E8E8"/>
<path d="M84.0736 38.1416C82.572 43.5595 79.4005 47.9907 75.8432 43.8793C74.2103 41.8557 73.4062 39.1203 72.7395 36.5197C72.588 35.9638 71.9795 35.8255 71.5162 36.0599C71.1736 36.2625 71.1366 36.7047 71.0388 37.0598C70.3818 39.6938 69.5645 42.3217 67.8453 44.2731C64.333 47.8242 61.3834 43.1181 59.9117 36.8809C59.836 36.5576 59.7858 36.4484 59.5559 36.2079C59.3313 35.9727 58.7448 35.8379 58.3872 36.0334C58.1177 36.1806 57.9583 36.3092 57.8394 36.5973C57.7337 36.8536 57.6764 37.0536 57.5672 37.3558C56.1413 41.3377 53.5696 45.5795 49.5165 45.4782C46.0887 45.4897 42.8054 40.832 41.4904 35.8881C40.8088 33.5007 40.4239 31.0648 40.2768 28.3065C40.0839 23.9925 40.5208 19.8317 41.7784 15.9669C45.9936 3.53041 54.4213 5.39629 57.6914 15.8004C57.8552 16.5061 58.2912 16.8858 58.9456 16.8444C59.3498 16.7475 59.8149 16.6118 59.9725 15.6921C61.5261 8.75451 65.3317 4.18056 68.8573 9.89095C69.93 11.6925 70.6082 13.8738 71.1225 16.0718C71.193 16.3405 71.2793 16.5519 71.4352 16.6761C71.7346 16.899 72.2129 16.8937 72.5026 16.6602C72.7105 16.47 72.7642 16.2092 72.8558 15.8577C72.958 15.4366 73.0672 15.0155 73.1861 14.5997C75.2443 7.11592 79.5476 4.47568 82.7622 11.1031C84.92 15.8577 85.474 20.9593 85.54 26.3905V26.4001C85.5127 30.6464 85.1287 34.3217 84.0736 38.1416ZM67.9422 23.3159C67.0624 23.3159 66.2988 23.693 65.854 24.3501C65.4964 24.8629 65.3229 25.5394 65.3229 26.4001C65.3229 27.2608 65.4964 27.9374 65.854 28.4396C66.3181 29.1073 67.0624 29.4747 67.9422 29.4747C68.8221 29.4747 69.5945 29.0976 70.0392 28.4396C70.4065 27.9083 70.5712 27.2511 70.5712 26.3517C70.5712 24.4761 69.5751 23.3159 67.9422 23.3159Z" fill="#E8E8E8"/>
</g>
<defs>
<filter id="filter0_d_173_2432" x="-0.879346" y="-0.893262" width="94.6" height="54.6" filterUnits="userSpaceOnUse" color-interpolation-filters="sRGB">
<feFlood flood-opacity="0" result="BackgroundImageFix"/>
<feColorMatrix in="SourceAlpha" type="matrix" values="0 0 0 0 0 0 0 0 0 0 0 0 0 0 0 0 0 0 127 0" result="hardAlpha"/>
<feOffset/>
<feGaussianBlur stdDeviation="3.65"/>
<feComposite in2="hardAlpha" operator="out"/>
<feColorMatrix type="matrix" values="0 0 0 0 0 0 0 0 0 0 0 0 0 0 0 0 0 0 0.25 0"/>
<feBlend mode="normal" in2="BackgroundImageFix" result="effect1_dropShadow_173_2432"/>
<feBlend mode="normal" in="SourceGraphic" in2="effect1_dropShadow_173_2432" result="shape"/>
</filter>
</defs>
</svg>
