<svg width="541" height="270" viewBox="0 0 541 270" fill="none" xmlns="http://www.w3.org/2000/svg">
<path d="M212.352 113.043C212.424 127.403 212.614 144.749 212.257 159.235C211.108 179.34 209.202 196.769 204.955 215.953C191.703 275.709 167.064 279.086 152.567 228.476C150.929 222.892 149.357 216.25 148.148 210.196C147.659 207.913 147.516 205.909 146.831 204.018C146.319 202.692 145.563 201.669 144.05 200.575C142.537 199.481 138.91 198.934 136.355 200.878C134.526 202.27 133.847 204.286 132.859 206.92C130.101 214.573 126.551 222.434 122.758 229.023C110.286 249.8 96.3728 263.233 75.2233 263.97C31.0304 264.03 7.14715 191.679 6.27163 148.127C4.8303 118.728 8.13583 90.2617 17.3973 64.1389C32.8231 20.9555 63.8475 -8.55688 99.0887 14.0516C115.634 25.897 125.67 42.3272 133.026 63.7523C133.847 66.1428 134.383 68.2538 136.718 69.6156C139.053 70.9773 142.335 70.9833 144.634 69.1339C146.42 67.6949 146.986 66.2617 147.57 62.9852C150.512 46.4838 155.086 28.5492 164.175 15.1042C182.472 -9.25262 197.57 20.9496 204.961 54.2855C209.327 73.9862 211.304 92.3965 212.352 113.001V113.049V113.043Z" fill="#FF4F23"/>
<path d="M535.044 135.11C534.597 171.764 530.851 206.2 516.259 238.299C494.52 283.035 465.419 265.213 451.5 214.698C450.696 211.891 449.958 209.049 449.267 206.206C448.648 203.834 448.284 202.074 446.885 200.789C444.919 199.213 441.685 199.184 439.666 200.688C438.612 201.52 438.028 202.954 437.552 204.767C434.073 219.604 429.487 234.327 422.233 246.488C398.392 285.033 372.656 254.159 362.15 207.33C361.084 201.122 357.939 200.2 355.211 199.546C350.786 199.267 347.832 201.836 346.73 206.599C324.61 276.827 267.623 289.421 239.118 205.475C230.613 179.382 227.659 151.302 228.963 122.177C229.952 103.564 232.561 87.1161 237.171 71.0071C246.063 37.6354 268.267 6.1964 291.447 6.26775C318.856 5.58985 336.247 34.2222 345.884 61.1003C346.629 63.1399 347.016 64.4838 347.73 66.2202C348.529 68.1647 349.607 69.0329 351.435 70.0259C353.853 71.3461 357.82 70.4303 359.339 68.8485C360.857 67.2668 361.227 66.4878 361.745 64.3054C371.697 22.2103 391.643 -9.56178 415.39 14.4085C427.016 27.5799 432.543 45.3183 436.986 63.1042C437.647 65.4947 437.897 68.4798 440.214 69.8535C443.347 71.4352 447.468 70.5016 448.493 66.7435C453.001 49.1895 458.433 30.7256 469.481 17.0666C493.531 -10.6916 514.985 19.2251 525.134 55.796C532.269 81.5799 534.865 106.383 535.05 135.045V135.116L535.044 135.11Z" fill="#477F9C"/>
<path d="M401.917 121.278C399.499 124.674 398.32 129.306 398.32 135.05C398.32 140.795 399.499 145.427 401.917 148.888C404.925 153.324 410.089 155.869 416.033 155.869C427.081 155.869 433.811 148.038 433.811 135.378C433.811 129.306 432.698 124.87 430.214 121.284C427.206 116.848 421.977 114.303 416.033 114.303C410.089 114.303 405.05 116.783 401.917 121.284V121.278Z" fill="#FF4F23"/>
</svg>
